<?xml version="1.0" encoding="UTF-8" standalone="no"?>
<!-- Created with Inkscape (http://www.inkscape.org/) -->

<svg
   xmlns:dc="http://purl.org/dc/elements/1.1/"
   xmlns:cc="http://creativecommons.org/ns#"
   xmlns:rdf="http://www.w3.org/1999/02/22-rdf-syntax-ns#"
   xmlns:svg="http://www.w3.org/2000/svg"
   xmlns="http://www.w3.org/2000/svg"
   xmlns:sodipodi="http://sodipodi.sourceforge.net/DTD/sodipodi-0.dtd"
   xmlns:inkscape="http://www.inkscape.org/namespaces/inkscape"
   width="297mm"
   height="210mm"
   viewBox="0 0 296.99999 210.00004"
   version="1.1"
   id="svg311"
   inkscape:version="0.92.3 (2405546, 2018-03-11)"
   sodipodi:docname="lernOS-Canvas-de.svg"
   inkscape:export-filename="C:\Users\SimonD체ckert\OneDrive - Cogneon GmbH\Dokumente\GitHub\lernos-barcamp\de\images\lernOS-Barcamp-Canvas-de-300dpi.png"
   inkscape:export-xdpi="96.019997"
   inkscape:export-ydpi="96.019997">
  <defs
     id="defs305" />
  <sodipodi:namedview
     id="base"
     pagecolor="#ffffff"
     bordercolor="#666666"
     borderopacity="1.0"
     inkscape:pageopacity="1"
     inkscape:pageshadow="2"
     inkscape:zoom="1.4"
     inkscape:cx="700.11955"
     inkscape:cy="388.32592"
     inkscape:document-units="mm"
     inkscape:current-layer="layer1"
     showgrid="false"
     inkscape:window-width="2560"
     inkscape:window-height="1373"
     inkscape:window-x="-9"
     inkscape:window-y="-9"
     inkscape:window-maximized="1"
     units="mm" />
  <metadata
     id="metadata308">
    <rdf:RDF>
      <cc:Work
         rdf:about="">
        <dc:format>image/svg+xml</dc:format>
        <dc:type
           rdf:resource="http://purl.org/dc/dcmitype/StillImage" />
        <dc:title />
      </cc:Work>
    </rdf:RDF>
  </metadata>
  <g
     inkscape:label="Ebene 1"
     inkscape:groupmode="layer"
     id="layer1"
     transform="translate(0,-86.999969)">
    <text
       xml:space="preserve"
       style="font-style:italic;font-variant:normal;font-weight:normal;font-stretch:normal;font-size:10.88525009px;line-height:1.25;font-family:'Times New Roman';-inkscape-font-specification:'Times New Roman, Italic';font-variant-ligatures:normal;font-variant-caps:normal;font-variant-numeric:normal;font-feature-settings:normal;text-align:start;letter-spacing:0px;word-spacing:0px;writing-mode:lr-tb;text-anchor:start;fill:#000000;fill-opacity:1;stroke:none;stroke-width:0.38966307"
       x="9.6870451"
       y="109.4988"
       id="text854"
       transform="scale(1.1037697,0.9059861)"><tspan
         sodipodi:role="line"
         id="tspan852"
         x="9.6870451"
         y="109.4988"
         style="font-style:italic;font-variant:normal;font-weight:normal;font-stretch:normal;font-size:10.88525009px;font-family:'Times New Roman';-inkscape-font-specification:'Times New Roman, Italic';font-variant-ligatures:normal;font-variant-caps:normal;font-variant-numeric:normal;font-feature-settings:normal;text-align:start;writing-mode:lr-tb;text-anchor:start;fill:#000000;stroke-width:0.38966307">lernOS Barcamp Canvas</tspan></text>
    <g
       id="layer2"
       inkscape:label="Layer"
       transform="matrix(0.36842994,0,0,0.36842994,-58.948556,-85.350361)" />
    <text
       xml:space="preserve"
       style="font-style:italic;font-variant:normal;font-weight:normal;font-stretch:normal;font-size:4.31769657px;line-height:1.25;font-family:'Times New Roman';-inkscape-font-specification:'Times New Roman, Italic';font-variant-ligatures:normal;font-variant-caps:normal;font-variant-numeric:normal;font-feature-settings:normal;text-align:start;letter-spacing:0px;word-spacing:0px;writing-mode:lr-tb;text-anchor:start;fill:#000000;fill-opacity:1;stroke:none;stroke-width:0.15455824"
       x="15.675101"
       y="110.02261"
       id="text854-9-7"><tspan
         sodipodi:role="line"
         id="tspan852-8-5"
         x="15.675101"
         y="110.02261"
         style="font-style:italic;font-variant:normal;font-weight:normal;font-stretch:normal;font-size:4.31769657px;font-family:'Times New Roman';-inkscape-font-specification:'Times New Roman, Italic';font-variant-ligatures:normal;font-variant-caps:normal;font-variant-numeric:normal;font-feature-settings:normal;text-align:start;writing-mode:lr-tb;text-anchor:start;fill:#000000;stroke-width:0.15455824">Partner &amp; Schnittstellen</tspan></text>
    <text
       xml:space="preserve"
       style="font-style:italic;font-variant:normal;font-weight:normal;font-stretch:normal;font-size:4.31769705px;line-height:1.25;font-family:'Times New Roman';-inkscape-font-specification:'Times New Roman, Italic';font-variant-ligatures:normal;font-variant-caps:normal;font-variant-numeric:normal;font-feature-settings:normal;text-align:start;letter-spacing:0px;word-spacing:0px;writing-mode:lr-tb;text-anchor:start;fill:#000000;fill-opacity:1;stroke:none;stroke-width:0.15455824"
       x="70.453613"
       y="109.94882"
       id="text854-9-7-7"><tspan
         sodipodi:role="line"
         id="tspan852-8-5-8"
         x="70.453613"
         y="109.94882"
         style="font-style:italic;font-variant:normal;font-weight:normal;font-stretch:normal;font-size:4.31769705px;font-family:'Times New Roman';-inkscape-font-specification:'Times New Roman, Italic';font-variant-ligatures:normal;font-variant-caps:normal;font-variant-numeric:normal;font-feature-settings:normal;text-align:start;writing-mode:lr-tb;text-anchor:start;fill:#000000;stroke-width:0.15455824">Aktivit채ten</tspan></text>
    <g
       id="g3943"
       transform="translate(0,-0.61670652)">
      <text
         id="text854-9-7-7-0"
         y="110.63932"
         x="125.27359"
         style="font-style:italic;font-variant:normal;font-weight:normal;font-stretch:normal;font-size:4.31769705px;line-height:1.25;font-family:'Times New Roman';-inkscape-font-specification:'Times New Roman, Italic';font-variant-ligatures:normal;font-variant-caps:normal;font-variant-numeric:normal;font-feature-settings:normal;text-align:start;letter-spacing:0px;word-spacing:0px;writing-mode:lr-tb;text-anchor:start;fill:#000000;fill-opacity:1;stroke:none;stroke-width:0.15455824"
         xml:space="preserve"><tspan
           style="font-style:italic;font-variant:normal;font-weight:normal;font-stretch:normal;font-size:4.31769705px;font-family:'Times New Roman';-inkscape-font-specification:'Times New Roman, Italic';font-variant-ligatures:normal;font-variant-caps:normal;font-variant-numeric:normal;font-feature-settings:normal;text-align:start;writing-mode:lr-tb;text-anchor:start;fill:#000000;stroke-width:0.15455824"
           y="110.63932"
           x="125.27359"
           id="tspan852-8-5-8-7"
           sodipodi:role="line">Zweck &amp; Ziele</tspan></text>
    </g>
    <g
       id="g3949"
       transform="translate(0,-0.04229703)">
      <text
         id="text854-9-7-7-0-1"
         y="110.06491"
         x="179.78397"
         style="font-style:italic;font-variant:normal;font-weight:normal;font-stretch:normal;font-size:4.31769705px;line-height:1.25;font-family:'Times New Roman';-inkscape-font-specification:'Times New Roman, Italic';font-variant-ligatures:normal;font-variant-caps:normal;font-variant-numeric:normal;font-feature-settings:normal;text-align:start;letter-spacing:0px;word-spacing:0px;writing-mode:lr-tb;text-anchor:start;fill:#000000;fill-opacity:1;stroke:none;stroke-width:0.15455824"
         xml:space="preserve"><tspan
           style="font-style:italic;font-variant:normal;font-weight:normal;font-stretch:normal;font-size:4.31769705px;font-family:'Times New Roman';-inkscape-font-specification:'Times New Roman, Italic';font-variant-ligatures:normal;font-variant-caps:normal;font-variant-numeric:normal;font-feature-settings:normal;text-align:start;writing-mode:lr-tb;text-anchor:start;fill:#000000;stroke-width:0.15455824"
           y="110.06491"
           x="179.78397"
           id="tspan852-8-5-8-7-9"
           sodipodi:role="line">Beziehungspflege</tspan></text>
    </g>
    <g
       id="g3955"
       transform="translate(0,-0.12454154)">
      <text
         id="text854-9-7-7-0-0-6-1"
         y="110.00801"
         x="234.45482"
         style="font-style:italic;font-variant:normal;font-weight:normal;font-stretch:normal;font-size:4.31769705px;line-height:1.25;font-family:'Times New Roman';-inkscape-font-specification:'Times New Roman, Italic';font-variant-ligatures:normal;font-variant-caps:normal;font-variant-numeric:normal;font-feature-settings:normal;text-align:start;letter-spacing:0px;word-spacing:0px;writing-mode:lr-tb;text-anchor:start;fill:#000000;fill-opacity:1;stroke:none;stroke-width:0.15455824"
         xml:space="preserve"><tspan
           style="font-style:italic;font-variant:normal;font-weight:normal;font-stretch:normal;font-size:4.31769705px;font-family:'Times New Roman';-inkscape-font-specification:'Times New Roman, Italic';font-variant-ligatures:normal;font-variant-caps:normal;font-variant-numeric:normal;font-feature-settings:normal;text-align:start;writing-mode:lr-tb;text-anchor:start;fill:#000000;stroke-width:0.15455824"
           y="110.00801"
           x="234.45482"
           id="tspan852-8-5-8-7-5-5-8"
           sodipodi:role="line">Zielgruppen</tspan></text>
    </g>
    <text
       xml:space="preserve"
       style="font-style:italic;font-variant:normal;font-weight:normal;font-stretch:normal;font-size:4.31769705px;line-height:1.25;font-family:'Times New Roman';-inkscape-font-specification:'Times New Roman, Italic';font-variant-ligatures:normal;font-variant-caps:normal;font-variant-numeric:normal;font-feature-settings:normal;text-align:start;letter-spacing:0px;word-spacing:0px;writing-mode:lr-tb;text-anchor:start;fill:#000000;fill-opacity:1;stroke:none;stroke-width:0.15455824"
       x="70.257065"
       y="175.61981"
       id="text854-9-7-7-09"><tspan
         sodipodi:role="line"
         id="tspan852-8-5-8-0"
         x="70.257065"
         y="175.61981"
         style="font-style:italic;font-variant:normal;font-weight:normal;font-stretch:normal;font-size:4.31769705px;font-family:'Times New Roman';-inkscape-font-specification:'Times New Roman, Italic';font-variant-ligatures:normal;font-variant-caps:normal;font-variant-numeric:normal;font-feature-settings:normal;text-align:start;writing-mode:lr-tb;text-anchor:start;fill:#000000;stroke-width:0.15455824">Ressourcen</tspan></text>
    <text
       xml:space="preserve"
       style="font-style:italic;font-variant:normal;font-weight:normal;font-stretch:normal;font-size:4.31769705px;line-height:1.25;font-family:'Times New Roman';-inkscape-font-specification:'Times New Roman, Italic';font-variant-ligatures:normal;font-variant-caps:normal;font-variant-numeric:normal;font-feature-settings:normal;text-align:start;letter-spacing:0px;word-spacing:0px;writing-mode:lr-tb;text-anchor:start;fill:#000000;fill-opacity:1;stroke:none;stroke-width:0.15455824"
       x="15.675101"
       y="242.4342"
       id="text854-9-7-7-7"><tspan
         sodipodi:role="line"
         id="tspan852-8-5-8-5"
         x="15.675101"
         y="242.4342"
         style="font-style:italic;font-variant:normal;font-weight:normal;font-stretch:normal;font-size:4.31769705px;font-family:'Times New Roman';-inkscape-font-specification:'Times New Roman, Italic';font-variant-ligatures:normal;font-variant-caps:normal;font-variant-numeric:normal;font-feature-settings:normal;text-align:start;writing-mode:lr-tb;text-anchor:start;fill:#000000;stroke-width:0.15455824">Aufwand</tspan></text>
    <text
       xml:space="preserve"
       style="font-style:italic;font-variant:normal;font-weight:normal;font-stretch:normal;font-size:4.31769705px;line-height:1.25;font-family:'Times New Roman';-inkscape-font-specification:'Times New Roman, Italic';font-variant-ligatures:normal;font-variant-caps:normal;font-variant-numeric:normal;font-feature-settings:normal;text-align:start;letter-spacing:0px;word-spacing:0px;writing-mode:lr-tb;text-anchor:start;fill:#000000;fill-opacity:1;stroke:none;stroke-width:0.15455824"
       x="152.18172"
       y="242.4342"
       id="text854-9-7-7-7-3"><tspan
         sodipodi:role="line"
         id="tspan852-8-5-8-5-1"
         x="152.18172"
         y="242.4342"
         style="font-style:italic;font-variant:normal;font-weight:normal;font-stretch:normal;font-size:4.31769705px;font-family:'Times New Roman';-inkscape-font-specification:'Times New Roman, Italic';font-variant-ligatures:normal;font-variant-caps:normal;font-variant-numeric:normal;font-feature-settings:normal;text-align:start;writing-mode:lr-tb;text-anchor:start;fill:#000000;stroke-width:0.15455824">Nutzen</tspan></text>
    <g
       id="g3822"
       transform="translate(-0.04869264)">
      <text
         id="text854-9-7-7-7-7"
         y="290.22134"
         x="11.320611"
         style="font-style:italic;font-variant:normal;font-weight:normal;font-stretch:normal;font-size:3.71322441px;line-height:1.25;font-family:'Times New Roman';-inkscape-font-specification:'Times New Roman, Italic';font-variant-ligatures:normal;font-variant-caps:normal;font-variant-numeric:normal;font-feature-settings:normal;text-align:start;letter-spacing:0px;word-spacing:0px;writing-mode:lr-tb;text-anchor:start;fill:#000000;fill-opacity:1;stroke:none;stroke-width:0.13292027"
         xml:space="preserve"><tspan
           style="font-style:italic;font-variant:normal;font-weight:normal;font-stretch:normal;font-size:3.71322441px;font-family:'Times New Roman';-inkscape-font-specification:'Times New Roman, Italic';font-variant-ligatures:normal;font-variant-caps:normal;font-variant-numeric:normal;font-feature-settings:normal;text-align:start;writing-mode:lr-tb;text-anchor:start;fill:#000000;stroke-width:0.13292027"
           y="290.22134"
           x="11.320611"
           id="tspan852-8-5-8-5-7"
           sodipodi:role="line">Der lernOS Canvas ist Teil von lernOS, dem Organisationssystem f체r Lebenslanges Lernen &amp;</tspan></text>
      <text
         id="text854-9-7-7-7-7-5"
         y="293.91965"
         x="11.699549"
         style="font-style:italic;font-variant:normal;font-weight:normal;font-stretch:normal;font-size:3.71322441px;line-height:1.25;font-family:'Times New Roman';-inkscape-font-specification:'Times New Roman, Italic';font-variant-ligatures:normal;font-variant-caps:normal;font-variant-numeric:normal;font-feature-settings:normal;text-align:start;letter-spacing:0px;word-spacing:0px;writing-mode:lr-tb;text-anchor:start;fill:#000000;fill-opacity:1;stroke:none;stroke-width:0.13292027"
         xml:space="preserve"><tspan
           style="font-style:italic;font-variant:normal;font-weight:normal;font-stretch:normal;font-size:3.71322441px;font-family:'Times New Roman';-inkscape-font-specification:'Times New Roman, Italic';font-variant-ligatures:normal;font-variant-caps:normal;font-variant-numeric:normal;font-feature-settings:normal;text-align:start;writing-mode:lr-tb;text-anchor:start;fill:#000000;stroke-width:0.13292027"
           y="293.91965"
           x="11.699549"
           id="tspan852-8-5-8-5-7-0"
           sodipodi:role="line">Lernende Organisationen. Mehr Informationen 체ber lernOS unter https://lernos.org</tspan></text>
    </g>
    <g
       id="g3816"
       transform="translate(-0.43065106,-0.2403375)">
      <g
         transform="matrix(0.91487216,0,0,0.91487216,12.949043,13.550815)"
         id="g3042">
        <text
           xml:space="preserve"
           style="font-style:normal;font-variant:normal;font-weight:normal;font-stretch:normal;font-size:1.65113771px;line-height:1.25;font-family:'Open Sans';-inkscape-font-specification:'Open Sans, Normal';font-variant-ligatures:normal;font-variant-caps:normal;font-variant-numeric:normal;font-feature-settings:normal;text-align:start;letter-spacing:0px;word-spacing:0px;writing-mode:lr-tb;text-anchor:start;fill:#000000;fill-opacity:1;stroke:none;stroke-width:0.05910463"
           x="210.13707"
           y="302.08206"
           id="text854-9-7-4-5-7-1-1-8-4-0-1-3"><tspan
             sodipodi:role="line"
             id="tspan852-8-5-83-2-9-5-6-7-5-7-1-1"
             x="210.13707"
             y="302.08206"
             style="font-style:normal;font-variant:normal;font-weight:normal;font-stretch:normal;font-size:1.76388884px;font-family:'Open Sans';-inkscape-font-specification:'Open Sans, Normal';font-variant-ligatures:normal;font-variant-caps:normal;font-variant-numeric:normal;font-feature-settings:normal;text-align:start;writing-mode:lr-tb;text-anchor:start;fill:#000000;fill-opacity:1;stroke-width:0.05910463">Dieses Werk steht unter der Creative Commons Attibution 4.0 International Lizenz.</tspan></text>
        <text
           xml:space="preserve"
           style="font-style:normal;font-variant:normal;font-weight:normal;font-stretch:normal;font-size:1.65113771px;line-height:1.25;font-family:'Open Sans';-inkscape-font-specification:'Open Sans, Normal';font-variant-ligatures:normal;font-variant-caps:normal;font-variant-numeric:normal;font-feature-settings:normal;text-align:start;letter-spacing:0px;word-spacing:0px;writing-mode:lr-tb;text-anchor:start;fill:#000000;fill-opacity:1;stroke:none;stroke-width:0.05910463"
           x="206.79189"
           y="306.28882"
           id="text854-9-7-4-5-7-1-1-8-4-0-1-3-1"><tspan
             sodipodi:role="line"
             id="tspan852-8-5-83-2-9-5-6-7-5-7-1-1-3"
             x="206.79189"
             y="306.28882"
             style="font-style:normal;font-variant:normal;font-weight:normal;font-stretch:normal;font-size:1.76388884px;font-family:'Open Sans';-inkscape-font-specification:'Open Sans, Normal';font-variant-ligatures:normal;font-variant-caps:normal;font-variant-numeric:normal;font-feature-settings:normal;text-align:start;writing-mode:lr-tb;text-anchor:start;fill:#000000;fill-opacity:1;stroke-width:0.05910463">Eine Kopie der Lizenz befindet sich unter https://creativecommons.org/licenses/by/4.0.</tspan></text>
        <text
           xml:space="preserve"
           style="font-style:normal;font-variant:normal;font-weight:normal;font-stretch:normal;font-size:1.65113771px;line-height:1.25;font-family:'Open Sans';-inkscape-font-specification:'Open Sans, Normal';font-variant-ligatures:normal;font-variant-caps:normal;font-variant-numeric:normal;font-feature-settings:normal;text-align:start;letter-spacing:0px;word-spacing:0px;writing-mode:lr-tb;text-anchor:start;fill:#000000;fill-opacity:1;stroke:none;stroke-width:0.05910463"
           x="206.92969"
           y="304.28278"
           id="text854-9-7-4-5-7-1-1-8-4-0-1-3-1-9"><tspan
             sodipodi:role="line"
             id="tspan852-8-5-83-2-9-5-6-7-5-7-1-1-3-6"
             x="206.92969"
             y="304.28278"
             style="font-style:normal;font-variant:normal;font-weight:normal;font-stretch:normal;font-size:1.76388884px;font-family:'Open Sans';-inkscape-font-specification:'Open Sans, Normal';font-variant-ligatures:normal;font-variant-caps:normal;font-variant-numeric:normal;font-feature-settings:normal;text-align:start;writing-mode:lr-tb;text-anchor:start;fill:#000000;fill-opacity:1;stroke-width:0.05910463">Die verwendeten Font Awesome Icons stehen unter der CC BY 4.0 International Lizenz.</tspan></text>
      </g>
      <g
         transform="matrix(0.13464691,0,0,0.13464691,270.81784,288.59483)"
         inkscape:label="Layer 1"
         id="layer1-9">
        <g
           transform="matrix(0.9937728,0,0,0.9936696,-177.69267,6.25128e-7)"
           id="g260"
           inkscape:export-filename="/mnt/hgfs/Bov/Documents/Work/2007/cc/identity/srr buttons/big/by.png"
           inkscape:export-xdpi="300.23013"
           inkscape:export-ydpi="300.23013">
          <path
             inkscape:connector-curvature="0"
             id="path3817_1_"
             nodetypes="ccccccc"
             d="m 181.96579,0.51074 114.06396,0.20264 c 1.59375,0 3.01758,-0.23633 3.01758,3.18066 l -0.13965,37.56689 H 179.08737 V 3.75439 c 0,-1.68505 0.16309,-3.24365 2.87842,-3.24365 z"
             style="fill:#aab2ab" />
          <path
             inkscape:connector-curvature="0"
             d="m 297.29636,0 h -116.229 c -1.24658,0 -2.26123,1.01416 -2.26123,2.26074 v 39.49658 c 0,0.28174 0.229,0.51025 0.51074,0.51025 h 119.73047 c 0.28174,0 0.51074,-0.22852 0.51074,-0.51025 V 2.26074 C 299.55807,1.01416 298.54343,0 297.29636,0 Z M 181.06735,1.02148 h 116.229 c 0.68408,0 1.24023,0.55566 1.24023,1.23926 0,0 0,15.94824 0,27.44971 h -83.34424 c -3.04492,5.50586 -8.91113,9.24414 -15.64355,9.24414 -6.73535,0 -12.6001,-3.73486 -15.64355,-9.24414 h -4.07764 c 0,-11.50146 0,-27.44971 0,-27.44971 1e-5,-0.68359 0.55616,-1.23926 1.23975,-1.23926 z"
             id="path263" />
          <g
             enable-background="new    "
             id="g265">
            <path
               inkscape:connector-curvature="0"
               d="m 253.07761,32.95605 c 0.31738,0 0.60742,0.02832 0.87012,0.08398 0.26172,0.05566 0.48535,0.14746 0.67285,0.27539 0.18652,0.12695 0.33203,0.29688 0.43457,0.50781 0.10254,0.21191 0.1543,0.47266 0.1543,0.78418 0,0.33594 -0.0762,0.61523 -0.22949,0.83887 -0.15234,0.22461 -0.37891,0.40723 -0.67773,0.55078 0.41211,0.11816 0.71973,0.3252 0.92285,0.62109 0.20312,0.29589 0.30469,0.65234 0.30469,1.06934 0,0.33594 -0.0654,0.62695 -0.19629,0.87305 -0.13086,0.24512 -0.30762,0.44629 -0.52832,0.60156 -0.22168,0.15625 -0.47461,0.27148 -0.75781,0.3457 -0.28418,0.0752 -0.5752,0.1123 -0.875,0.1123 H 249.936 v -6.66406 h 3.14161 z m -0.1875,2.69532 c 0.26172,0 0.47656,-0.0625 0.64551,-0.18652 0.16797,-0.12402 0.25195,-0.3252 0.25195,-0.60449 0,-0.15527 -0.0283,-0.2832 -0.084,-0.38184 -0.0566,-0.09961 -0.13086,-0.17676 -0.22461,-0.2334 -0.0937,-0.05566 -0.20117,-0.09473 -0.32227,-0.11621 -0.1211,-0.02148 -0.24805,-0.03223 -0.37793,-0.03223 h -1.37402 v 1.55469 z m 0.0859,2.82812 c 0.14355,0 0.28027,-0.01367 0.41113,-0.04199 0.13086,-0.02832 0.24609,-0.0752 0.34668,-0.13965 0.0996,-0.06543 0.17871,-0.1543 0.23828,-0.2666 0.0596,-0.11133 0.0889,-0.25488 0.0889,-0.42871 0,-0.3418 -0.0967,-0.58594 -0.29004,-0.73242 -0.19336,-0.14551 -0.44922,-0.21875 -0.7666,-0.21875 h -1.59961 v 1.82812 z"
               id="path267"
               style="fill:#ffffff" />
            <path
               inkscape:connector-curvature="0"
               d="m 255.78854,32.95605 h 1.64355 l 1.56055,2.63184 1.55078,-2.63184 h 1.63379 l -2.47363,4.10645 v 2.55762 h -1.46875 v -2.59473 z"
               id="path269"
               style="fill:#ffffff" />
          </g>
          <g
             id="g5908_1_"
             transform="matrix(0.872921,0,0,0.872921,50.12536,143.2144)">
            <path
               inkscape:connector-curvature="0"
               id="path5906_1_"
               cx="296.35416"
               ry="22.939548"
               cy="264.3577"
               type="arc"
               rx="22.939548"
               d="m 186.90065,-141.46002 c 0.006,8.68079 -7.02786,15.7215 -15.70808,15.72711 -8.68022,0.006 -15.72206,-7.02734 -15.7271,-15.70807 0,-0.006 0,-0.0123 0,-0.019 -0.005,-8.68079 7.02786,-15.7215 15.70808,-15.72656 8.68135,-0.006 15.72206,7.02734 15.7271,15.70813 0,0.006 0,0.0123 0,0.0184 z"
               style="fill:#ffffff" />
            <g
               id="g5706_1_"
               transform="translate(-289.6157,99.0653)">
              <path
                 inkscape:connector-curvature="0"
                 id="path5708_1_"
                 d="m 473.57574,-253.32751 c 3.48541,3.48541 5.22839,7.75391 5.22839,12.80219 0,5.04938 -1.71277,9.27203 -5.13831,12.66791 -3.63531,3.5766 -7.93182,5.36432 -12.88947,5.36432 -4.89777,0 -9.11987,-1.77319 -12.66513,-5.31952 -3.54581,-3.54584 -5.31845,-7.78302 -5.31845,-12.71271 0,-4.92859 1.77264,-9.19598 5.31845,-12.80219 3.4552,-3.48651 7.67728,-5.22949 12.66513,-5.22949 5.0483,-10e-6 9.31404,1.74297 12.79939,5.22949 z m -23.11798,2.34484 c -2.94672,2.97638 -4.41953,6.46289 -4.41953,10.46234 0,3.99835 1.45828,7.45526 4.37424,10.37067 2.9165,2.9165 6.38849,4.37421 10.41705,4.37421 4.02856,0 7.53015,-1.47223 10.50653,-4.4184 2.82593,-2.73645 4.23944,-6.17706 4.23944,-10.32648 0,-4.11804 -1.43646,-7.61346 -4.30768,-10.48468 -2.87067,-2.87067 -6.34991,-4.30658 -10.43829,-4.30658 -4.0884,1e-5 -7.54638,1.44318 -10.37176,4.32892 z m 7.75449,8.70319 c -0.45029,-0.98169 -1.1243,-1.47284 -2.02322,-1.47284 -1.58917,0 -2.38345,1.07007 -2.38345,3.20911 0,2.13953 0.79428,3.2085 2.38345,3.2085 1.04938,0 1.79892,-0.52075 2.24866,-1.56451 l 2.20276,1.17297 c -1.04993,1.86548 -2.62509,2.79846 -4.72549,2.79846 -1.6199,0 -2.91763,-0.4967 -3.89206,-1.48901 -0.9761,-0.99341 -1.46274,-2.36273 -1.46274,-4.10852 0,-1.71503 0.50229,-3.07654 1.50748,-4.08502 1.00519,-1.00854 2.25702,-1.51257 3.75781,-1.51257 2.22012,0 3.80981,0.87488 4.77081,2.62286 z m 10.36337,0 c -0.45087,-0.98169 -1.11145,-1.47284 -1.98242,-1.47284 -1.62103,0 -2.43213,1.07007 -2.43213,3.20911 0,2.13953 0.8111,3.2085 2.43213,3.2085 1.05109,0 1.78717,-0.52075 2.20728,-1.56451 l 2.25201,1.17297 c -1.04828,1.86548 -2.62122,2.79846 -4.71771,2.79846 -1.61768,0 -2.9126,-0.4967 -3.88647,-1.48901 -0.97217,-0.99341 -1.45935,-2.36273 -1.45935,-4.10852 0,-1.71503 0.49445,-3.07654 1.48285,-4.08502 0.98785,-1.00854 2.2453,-1.51257 3.7735,-1.51257 2.21619,0 3.80365,0.87488 4.76129,2.62286 z" />
            </g>
          </g>
          <g
             id="g275">
            <circle
               cx="255.55124"
               cy="15.31348"
               r="10.80664"
               id="circle277"
               style="fill:#ffffff" />
            <g
               id="g279">
              <path
                 inkscape:connector-curvature="0"
                 d="m 258.67819,12.18701 c 0,-0.4165 -0.33789,-0.75391 -0.75293,-0.75391 h -4.77344 c -0.41504,0 -0.75293,0.3374 -0.75293,0.75391 v 4.77295 h 1.33105 v 5.65186 h 3.61719 v -5.65186 h 1.33105 v -4.77295 z"
                 id="path281" />
              <circle
                 cx="255.53854"
                 cy="9.1723604"
                 r="1.63281"
                 id="circle283" />
            </g>
            <path
               inkscape:connector-curvature="0"
               d="m 255.5239,3.40723 c -3.23242,0 -5.96875,1.12793 -8.20801,3.38379 -2.29785,2.3335 -3.44629,5.0957 -3.44629,8.28467 0,3.18897 1.14844,5.93164 3.44629,8.22656 2.29785,2.29443 5.03418,3.44189 8.20801,3.44189 3.21289,0 5.99805,-1.15625 8.35352,-3.47119 2.21973,-2.19727 3.33008,-4.92969 3.33008,-8.19727 0,-3.26758 -1.12988,-6.02881 -3.3877,-8.28467 -2.25977,-2.25585 -5.02442,-3.38378 -8.2959,-3.38378 z m 0.0293,2.09961 c 2.64844,0 4.89746,0.93408 6.74707,2.80127 1.86914,1.84717 2.80371,4.10303 2.80371,6.76758 0,2.68359 -0.91504,4.91064 -2.74512,6.68018 -1.92871,1.90625 -4.19629,2.85889 -6.80566,2.85889 -2.61035,0 -4.85938,-0.94287 -6.74707,-2.82959 -1.88965,-1.88672 -2.83301,-4.12305 -2.83301,-6.70947 0,-2.58691 0.9541,-4.84229 2.8623,-6.76758 1.83009,-1.8672 4.06934,-2.80128 6.71778,-2.80128 z"
               id="path285"
               style="clip-rule:evenodd;fill-rule:evenodd" />
          </g>
        </g>
      </g>
    </g>
    <rect
       style="opacity:1;fill:none;fill-opacity:1;stroke:#000000;stroke-width:0.9148488;stroke-linecap:butt;stroke-miterlimit:4;stroke-dasharray:none;stroke-dashoffset:0;stroke-opacity:1;paint-order:normal"
       id="rect2309-1"
       width="274.08514"
       height="180.73015"
       x="11.988616"
       y="104.31219" />
    <rect
       style="opacity:1;fill:none;fill-opacity:1;stroke:#000000;stroke-width:0.60000002;stroke-linecap:butt;stroke-miterlimit:4;stroke-dasharray:none;stroke-dashoffset:0;stroke-opacity:1;paint-order:normal"
       id="rect2309-1-3"
       width="54.755043"
       height="132.36806"
       x="11.831192"
       y="104.15476" />
    <rect
       style="opacity:1;fill:none;fill-opacity:1;stroke:#000000;stroke-width:0.60000002;stroke-linecap:butt;stroke-miterlimit:4;stroke-dasharray:none;stroke-dashoffset:0;stroke-opacity:1;paint-order:normal"
       id="rect2309-1-3-2-1-4"
       width="137.19153"
       height="48.2771"
       x="148.88225"
       y="236.76523" />
    <rect
       style="opacity:1;fill:none;fill-opacity:1;stroke:#000000;stroke-width:0.60000002;stroke-linecap:butt;stroke-miterlimit:4;stroke-dasharray:none;stroke-dashoffset:0;stroke-opacity:1;paint-order:normal"
       id="rect2309-1-3-2-1-4-5"
       width="137.19153"
       height="48.2771"
       x="11.690726"
       y="236.76523" />
    <rect
       style="opacity:1;fill:none;fill-opacity:1;stroke:#000000;stroke-width:0.60000002;stroke-linecap:butt;stroke-miterlimit:4;stroke-dasharray:none;stroke-dashoffset:0;stroke-opacity:1;paint-order:normal"
       id="rect2309-1-3-2-7"
       width="54.45414"
       height="65.567673"
       x="66.586235"
       y="104.15476" />
    <rect
       style="opacity:1;fill:none;fill-opacity:1;stroke:#000000;stroke-width:0.60561395;stroke-linecap:butt;stroke-miterlimit:4;stroke-dasharray:none;stroke-dashoffset:0;stroke-opacity:1;paint-order:normal"
       id="rect2309-1-3-2-7-2"
       width="54.45414"
       height="66.800385"
       x="66.586235"
       y="169.72244" />
    <rect
       style="opacity:1;fill:none;fill-opacity:1;stroke:#000000;stroke-width:0.60000002;stroke-linecap:butt;stroke-miterlimit:4;stroke-dasharray:none;stroke-dashoffset:0;stroke-opacity:1;paint-order:normal"
       id="rect2309-1-3-9"
       width="54.755043"
       height="132.36806"
       x="121.04037"
       y="104.15476" />
    <rect
       style="opacity:1;fill:none;fill-opacity:1;stroke:#000000;stroke-width:0.60000002;stroke-linecap:butt;stroke-miterlimit:4;stroke-dasharray:none;stroke-dashoffset:0;stroke-opacity:1;paint-order:normal"
       id="rect2309-1-3-2-7-2-4"
       width="54.45414"
       height="65.567673"
       x="175.79541"
       y="104.15476" />
    <rect
       style="opacity:1;fill:none;fill-opacity:1;stroke:#000000;stroke-width:0.60561395;stroke-linecap:butt;stroke-miterlimit:4;stroke-dasharray:none;stroke-dashoffset:0;stroke-opacity:1;paint-order:normal"
       id="rect2309-1-3-2-7-2-4-1"
       width="54.45414"
       height="66.800385"
       x="175.79541"
       y="169.72244" />
    <rect
       style="opacity:1;fill:none;fill-opacity:1;stroke:#000000;stroke-width:0.60578454;stroke-linecap:butt;stroke-miterlimit:4;stroke-dasharray:none;stroke-dashoffset:0;stroke-opacity:1;paint-order:normal"
       id="rect2309-1-3-9-6"
       width="55.818336"
       height="132.36227"
       x="230.25252"
       y="104.31508" />
    <text
       xml:space="preserve"
       style="font-style:italic;font-variant:normal;font-weight:normal;font-stretch:normal;font-size:4.31769705px;line-height:1.25;font-family:'Times New Roman';-inkscape-font-specification:'Times New Roman, Italic';font-variant-ligatures:normal;font-variant-caps:normal;font-variant-numeric:normal;font-feature-settings:normal;text-align:start;letter-spacing:0px;word-spacing:0px;writing-mode:lr-tb;text-anchor:start;fill:#000000;fill-opacity:1;stroke:none;stroke-width:0.15455824"
       x="180.59814"
       y="175.61981"
       id="text854-9-7-7-09-7"><tspan
         sodipodi:role="line"
         id="tspan852-8-5-8-0-5"
         x="180.59814"
         y="175.61981"
         style="font-style:italic;font-variant:normal;font-weight:normal;font-stretch:normal;font-size:4.31769705px;font-family:'Times New Roman';-inkscape-font-specification:'Times New Roman, Italic';font-variant-ligatures:normal;font-variant-caps:normal;font-variant-numeric:normal;font-feature-settings:normal;text-align:start;writing-mode:lr-tb;text-anchor:start;fill:#000000;stroke-width:0.15455824">Infrastruktur</tspan></text>
  </g>
</svg>
